<svg width="110" height="115" viewBox="0 0 110 115" fill="none" xmlns="http://www.w3.org/2000/svg">
<g clip-path="url(#clip0_89_365)">
<rect width="109.48" height="114.23" rx="6" fill="white" fill-opacity="0.05"/>
<g clip-path="url(#clip1_89_365)">
<path d="M107.241 91.2431C106.746 85.8932 103.61 84.3895 99.1668 83.5539C101.114 72.3835 104.147 62.2074 108.432 51.4946C110.212 47.761 103.585 36.8468 92.4779 32.1013C81.3429 27.5194 72.1164 31.784 72.4646 36.4098C72.7525 48.9649 72.1071 60.2218 70.2362 71.4175C66.1262 68.6703 62.9335 67.5226 60.7964 71.7647C56.4031 79.4782 62.7237 99.2873 79.7519 106.428C96.7809 113.57 108.582 101.36 107.241 91.2431ZM67.3053 82.4117C67.3053 82.4117 69.3858 76.984 69.7462 73.8038C76.8362 90.8831 87.2448 95.2481 98.8405 86.0049C98.3332 89.1911 98.2035 95.3692 98.2035 95.3692C86.6609 105.21 74.1586 99.9667 67.3053 82.4117Z" fill="url(#paint0_linear_89_365)" fill-opacity="0.45"/>
</g>
<path d="M13.688 103.192C12.824 103.192 12.0187 103.053 11.272 102.776C10.536 102.488 9.896 102.083 9.352 101.56C8.808 101.037 8.38133 100.424 8.072 99.72C7.77333 99.016 7.624 98.2427 7.624 97.4C7.624 96.5573 7.77333 95.784 8.072 95.08C8.38133 94.376 8.808 93.7627 9.352 93.24C9.90667 92.7173 10.552 92.3173 11.288 92.04C12.024 91.752 12.8293 91.608 13.704 91.608C14.6747 91.608 15.5493 91.7787 16.328 92.12C17.1173 92.4507 17.7787 92.9413 18.312 93.592L16.648 95.128C16.264 94.6907 15.8373 94.3653 15.368 94.152C14.8987 93.928 14.3867 93.816 13.832 93.816C13.3093 93.816 12.8293 93.9013 12.392 94.072C11.9547 94.2427 11.576 94.488 11.256 94.808C10.936 95.128 10.6853 95.5067 10.504 95.944C10.3333 96.3813 10.248 96.8667 10.248 97.4C10.248 97.9333 10.3333 98.4187 10.504 98.856C10.6853 99.2933 10.936 99.672 11.256 99.992C11.576 100.312 11.9547 100.557 12.392 100.728C12.8293 100.899 13.3093 100.984 13.832 100.984C14.3867 100.984 14.8987 100.877 15.368 100.664C15.8373 100.44 16.264 100.104 16.648 99.656L18.312 101.192C17.7787 101.843 17.1173 102.339 16.328 102.68C15.5493 103.021 14.6693 103.192 13.688 103.192ZM25.1184 94.264C25.801 94.264 26.409 94.4027 26.9424 94.68C27.4864 94.9467 27.913 95.3627 28.2224 95.928C28.5317 96.4827 28.6864 97.1973 28.6864 98.072V103H26.1904V98.456C26.1904 97.7627 26.0357 97.2507 25.7264 96.92C25.4277 96.5893 25.001 96.424 24.4464 96.424C24.0517 96.424 23.6944 96.5093 23.3744 96.68C23.065 96.84 22.8197 97.0907 22.6384 97.432C22.4677 97.7733 22.3824 98.2107 22.3824 98.744V103H19.8864V91.128H22.3824V96.776L21.8224 96.056C22.1317 95.48 22.5744 95.0373 23.1504 94.728C23.7264 94.4187 24.3824 94.264 25.1184 94.264ZM36.2289 103V101.32L36.0689 100.952V97.944C36.0689 97.4107 35.9035 96.9947 35.5729 96.696C35.2529 96.3973 34.7569 96.248 34.0849 96.248C33.6262 96.248 33.1729 96.3227 32.7249 96.472C32.2875 96.6107 31.9142 96.8027 31.6049 97.048L30.7089 95.304C31.1782 94.9733 31.7435 94.7173 32.4049 94.536C33.0662 94.3547 33.7382 94.264 34.4209 94.264C35.7329 94.264 36.7515 94.5733 37.4769 95.192C38.2022 95.8107 38.5649 96.776 38.5649 98.088V103H36.2289ZM33.6049 103.128C32.9329 103.128 32.3569 103.016 31.8769 102.792C31.3969 102.557 31.0289 102.243 30.7729 101.848C30.5169 101.453 30.3889 101.011 30.3889 100.52C30.3889 100.008 30.5115 99.56 30.7569 99.176C31.0129 98.792 31.4129 98.4933 31.9569 98.28C32.5009 98.056 33.2102 97.944 34.0849 97.944H36.3729V99.4H34.3569C33.7702 99.4 33.3649 99.496 33.1409 99.688C32.9275 99.88 32.8209 100.12 32.8209 100.408C32.8209 100.728 32.9435 100.984 33.1889 101.176C33.4449 101.357 33.7915 101.448 34.2289 101.448C34.6449 101.448 35.0182 101.352 35.3489 101.16C35.6795 100.957 35.9195 100.664 36.0689 100.28L36.4529 101.432C36.2715 101.987 35.9409 102.408 35.4609 102.696C34.9809 102.984 34.3622 103.128 33.6049 103.128ZM45.9119 103.128C45.1865 103.128 44.5519 102.968 44.0079 102.648C43.4639 102.328 43.0372 101.843 42.7279 101.192C42.4292 100.531 42.2799 99.6987 42.2799 98.696C42.2799 97.6827 42.4239 96.8507 42.7119 96.2C42.9999 95.5493 43.4159 95.064 43.9599 94.744C44.5039 94.424 45.1545 94.264 45.9119 94.264C46.7225 94.264 47.4479 94.4507 48.0879 94.824C48.7385 95.1867 49.2505 95.6987 49.6239 96.36C50.0079 97.0213 50.1999 97.8 50.1999 98.696C50.1999 99.6027 50.0079 100.387 49.6239 101.048C49.2505 101.709 48.7385 102.221 48.0879 102.584C47.4479 102.947 46.7225 103.128 45.9119 103.128ZM40.8239 106.104V94.392H43.2079V96.152L43.1599 98.712L43.3199 101.256V106.104H40.8239ZM45.4799 101.08C45.8959 101.08 46.2639 100.984 46.5839 100.792C46.9145 100.6 47.1759 100.328 47.3679 99.976C47.5705 99.6133 47.6719 99.1867 47.6719 98.696C47.6719 98.1947 47.5705 97.768 47.3679 97.416C47.1759 97.064 46.9145 96.792 46.5839 96.6C46.2639 96.408 45.8959 96.312 45.4799 96.312C45.0639 96.312 44.6905 96.408 44.3599 96.6C44.0292 96.792 43.7679 97.064 43.5759 97.416C43.3839 97.768 43.2879 98.1947 43.2879 98.696C43.2879 99.1867 43.3839 99.6133 43.5759 99.976C43.7679 100.328 44.0292 100.6 44.3599 100.792C44.6905 100.984 45.0639 101.08 45.4799 101.08ZM56.1428 103.128C55.1614 103.128 54.2974 102.936 53.5508 102.552C52.8148 102.168 52.2441 101.645 51.8388 100.984C51.4334 100.312 51.2308 99.5493 51.2308 98.696C51.2308 97.832 51.4281 97.0693 51.8228 96.408C52.2281 95.736 52.7774 95.2133 53.4708 94.84C54.1641 94.456 54.9481 94.264 55.8228 94.264C56.6654 94.264 57.4228 94.4453 58.0948 94.808C58.7774 95.16 59.3161 95.672 59.7108 96.344C60.1054 97.0053 60.3028 97.8 60.3028 98.728C60.3028 98.824 60.2974 98.936 60.2868 99.064C60.2761 99.1813 60.2654 99.2933 60.2548 99.4H53.2628V97.944H58.9427L57.9828 98.376C57.9828 97.928 57.8921 97.5387 57.7108 97.208C57.5294 96.8773 57.2788 96.6213 56.9588 96.44C56.6388 96.248 56.2654 96.152 55.8388 96.152C55.4121 96.152 55.0334 96.248 54.7028 96.44C54.3828 96.6213 54.1321 96.8827 53.9508 97.224C53.7694 97.5547 53.6788 97.9493 53.6788 98.408V98.792C53.6788 99.2613 53.7801 99.6773 53.9828 100.04C54.1961 100.392 54.4894 100.664 54.8628 100.856C55.2468 101.037 55.6948 101.128 56.2068 101.128C56.6654 101.128 57.0654 101.059 57.4068 100.92C57.7588 100.781 58.0788 100.573 58.3668 100.296L59.6948 101.736C59.3001 102.184 58.8041 102.531 58.2068 102.776C57.6094 103.011 56.9214 103.128 56.1428 103.128ZM54.3188 93.288L56.4788 90.984H59.1667L56.2708 93.288H54.3188ZM65.5965 103.128C64.8818 103.128 64.2418 102.989 63.6765 102.712C63.1218 102.435 62.6898 102.013 62.3805 101.448C62.0712 100.872 61.9165 100.141 61.9165 99.256V94.392H64.4125V98.888C64.4125 99.6027 64.5618 100.131 64.8605 100.472C65.1698 100.803 65.6018 100.968 66.1565 100.968C66.5405 100.968 66.8818 100.888 67.1805 100.728C67.4792 100.557 67.7138 100.301 67.8845 99.96C68.0552 99.608 68.1405 99.1707 68.1405 98.648V94.392H70.6365V103H68.2685V100.632L68.7005 101.32C68.4125 101.917 67.9858 102.371 67.4205 102.68C66.8658 102.979 66.2578 103.128 65.5965 103.128Z" fill="white"/>
</g>
<rect x="0.5" y="0.5" width="108.48" height="113.23" rx="5.5" stroke="white" stroke-opacity="0.05"/>
<defs>
<linearGradient id="paint0_linear_89_365" x1="92.4768" y1="32.1009" x2="64.0654" y2="99.85" gradientUnits="userSpaceOnUse">
<stop stop-color="white"/>
<stop offset="1" stop-color="white" stop-opacity="0"/>
</linearGradient>
<clipPath id="clip0_89_365">
<rect width="109.48" height="114.23" rx="6" fill="white"/>
</clipPath>
<clipPath id="clip1_89_365">
<rect width="54.9321" height="80.4373" fill="white" transform="matrix(0.922192 0.386732 -0.168749 0.985659 67.5742 19)"/>
</clipPath>
</defs>
</svg>
